<svg t="1749528646782" class="icon" viewBox="0 0 1024 1024" version="1.1" xmlns="http://www.w3.org/2000/svg" p-id="18623"><path d="M294.4 202.709333h-33.28v-33.28a33.365333 33.365333 0 0 0-33.28-33.28 33.365333 33.365333 0 0 0-33.28 33.28v33.28h-33.28a33.365333 33.365333 0 0 0-33.28 33.28c0 18.346667 14.976 33.28 33.28 33.28h33.28v33.28c0 18.346667 14.976 33.28 33.28 33.28 18.346667 0 33.28-14.933333 33.28-33.28v-33.28h33.28c18.346667 0 33.28-14.933333 33.28-33.28 0-18.304-14.933333-33.28-33.28-33.28z m124.202667 198.613334h-23.893334v-23.893334a23.936 23.936 0 0 0-23.808-23.850666 23.936 23.936 0 0 0-23.893333 23.893333v23.850667h-23.893333a23.936 23.936 0 0 0-23.808 23.893333c0 13.098667 10.709333 23.808 23.850666 23.808h23.893334v23.893333c0 13.098667 10.666667 23.893333 23.850666 23.893334 13.098667 0 23.850667-10.794667 23.850667-23.893334v-23.893333h23.893333c13.098667 0 23.850667-10.709333 23.850667-23.850667a23.936 23.936 0 0 0-23.893333-23.893333z m153.472-233.258667a31.786667 31.786667 0 0 0-33.066667 20.352 32.298667 32.298667 0 0 0 9.301333 36.309333 223.829333 223.829333 0 1 1-315.434666 315.434667 32.298667 32.298667 0 0 0-36.266667-9.301333 31.829333 31.829333 0 0 0-20.394667 33.066666 360.874667 360.874667 0 1 0 395.818667-395.861333z" p-id="18624"></path></svg>