<svg t="1749530085582" class="icon" viewBox="0 0 1024 1024" version="1.1" xmlns="http://www.w3.org/2000/svg" p-id="6088"><path d="M832 938.666667H192c-59.733333 0-106.666667-46.933333-106.666667-106.666667V192c0-59.733333 46.933333-106.666667 106.666667-106.666667h640c59.733333 0 106.666667 46.933333 106.666667 106.666667v640c0 59.733333-46.933333 106.666667-106.666667 106.666667zM192 170.666667c-12.8 0-21.333333 8.533333-21.333333 21.333333v640c0 12.8 8.533333 21.333333 21.333333 21.333333h640c12.8 0 21.333333-8.533333 21.333333-21.333333V192c0-12.8-8.533333-21.333333-21.333333-21.333333H192z" p-id="6089"></path><path d="M277.333333 704c-23.466667 0-42.666667-19.2-42.666666-42.666667V362.666667c0-23.466667 19.2-42.666667 42.666666-42.666667h170.666667c23.466667 0 42.666667 19.2 42.666667 42.666667s-19.2 42.666667-42.666667 42.666666h-128v256c0 23.466667-19.2 42.666667-42.666667 42.666667z" p-id="6090"></path><path d="M437.333333 554.666667H277.333333c-23.466667 0-42.666667-19.2-42.666666-42.666667s19.2-42.666667 42.666666-42.666667h160c23.466667 0 42.666667 19.2 42.666667 42.666667s-19.2 42.666667-42.666667 42.666667zM437.333333 704H277.333333c-23.466667 0-42.666667-19.2-42.666666-42.666667s19.2-42.666667 42.666666-42.666666h160c23.466667 0 42.666667 19.2 42.666667 42.666666s-19.2 42.666667-42.666667 42.666667zM554.666667 704c-23.466667 0-42.666667-19.2-42.666667-42.666667V405.333333c0-23.466667 19.2-42.666667 42.666667-42.666666s42.666667 19.2 42.666666 42.666666v256c0 23.466667-19.2 42.666667-42.666666 42.666667z" p-id="6091"></path><path d="M746.666667 704c-23.466667 0-42.666667-19.2-42.666667-42.666667v-138.666666c0-29.866667-23.466667-53.333333-53.333333-53.333334S597.333333 492.8 597.333333 522.666667V661.333333c0 23.466667-19.2 42.666667-42.666666 42.666667s-42.666667-19.2-42.666667-42.666667v-138.666666c0-76.8 61.866667-138.666667 138.666667-138.666667s138.666667 61.866667 138.666666 138.666667V661.333333c0 23.466667-19.2 42.666667-42.666666 42.666667z" p-id="6092"></path></svg>