<svg t="1749537726849" class="icon" viewBox="0 0 1024 1024" version="1.1" xmlns="http://www.w3.org/2000/svg" p-id="49791"><path d="M192 192m85.333333 0l128 0q85.333333 0 85.333334 85.333333l0 128q0 85.333333-85.333334 85.333334l-128 0q-85.333333 0-85.333333-85.333334l0-128q0-85.333333 85.333333-85.333333Z" p-id="49792"></path><path d="M533.333333 192m85.333334 0l128 0q85.333333 0 85.333333 85.333333l0 128q0 85.333333-85.333333 85.333334l-128 0q-85.333333 0-85.333334-85.333334l0-128q0-85.333333 85.333334-85.333333Z" p-id="49793"></path><path d="M192 533.333333m85.333333 0l128 0q85.333333 0 85.333334 85.333334l0 128q0 85.333333-85.333334 85.333333l-128 0q-85.333333 0-85.333333-85.333333l0-128q0-85.333333 85.333333-85.333334Z" p-id="49794"></path><path d="M483.442391 682.673987m60.339778-60.339779l78.441713-78.441712q60.339779-60.339779 120.679557 0l78.441712 78.441712q60.339779 60.339779 0 120.679558l-78.441712 78.441712q-60.339779 60.339779-120.679557 0l-78.441713-78.441712q-60.339779-60.339779 0-120.679558Z" p-id="49795"></path></svg>