<svg t="1749530156393" class="icon" viewBox="0 0 1024 1024" version="1.1" xmlns="http://www.w3.org/2000/svg" p-id="39559"><path d="M192 85.333333h640a106.666667 106.666667 0 0 1 106.666667 106.666667v640a106.666667 106.666667 0 0 1-106.666667 106.666667H192a106.666667 106.666667 0 0 1-106.666667-106.666667V192a106.666667 106.666667 0 0 1 106.666667-106.666667z m640 85.333334H192a21.333333 21.333333 0 0 0-21.333333 21.333333v640a21.333333 21.333333 0 0 0 21.333333 21.333333h640a21.333333 21.333333 0 0 0 21.333333-21.333333V192a21.333333 21.333333 0 0 0-21.333333-21.333333z"  p-id="39560"></path><path d="M298.666667 341.333333h426.666666a42.666667 42.666667 0 0 1 42.666667 42.666667v213.333333a42.666667 42.666667 0 0 1-42.666667 42.666667H298.666667a42.666667 42.666667 0 0 1-42.666667-42.666667V384a42.666667 42.666667 0 0 1 42.666667-42.666667z m384 213.333334v-128H341.333333v128h341.333334z" p-id="39561"></path><path d="M512 256a42.666667 42.666667 0 0 1 42.538667 39.466667L554.666667 298.666667v448a42.666667 42.666667 0 0 1-85.205334 3.2L469.333333 746.666667V298.666667a42.666667 42.666667 0 0 1 42.666667-42.666667z" p-id="39562"></path></svg>